<svg width="128" height="128" viewBox="0 0 128 128" fill="none" xmlns="http://www.w3.org/2000/svg">
<path d="M2.54409 127L63.3531 64.668C63.5408 64.4826 63.6572 64.237 63.6821 63.9743C63.7069 63.7116 63.6386 63.4486 63.489 63.2312C59.7913 58.0687 52.968 57.1734 50.439 53.7044C42.9487 43.4294 41.0481 37.6124 37.829 37.9734C37.6044 38.0057 37.3978 38.1147 37.2444 38.2819L15.2784 60.7999C2.64035 73.7439 0.82435 102.275 0.49635 126.167C0.495262 126.405 0.565362 126.637 0.697624 126.835C0.829887 127.032 1.01826 127.186 1.23848 127.275C1.4587 127.365 1.7007 127.387 1.9333 127.337C2.16591 127.288 2.37892 127.171 2.54409 127Z" fill="#017CEE"/>
<path d="M126.99 125.46L64.658 64.647C64.4724 64.4588 64.2264 64.342 63.9633 64.3171C63.7001 64.2923 63.4366 64.361 63.2191 64.5111C58.0566 68.2109 57.1613 75.0321 53.6923 77.5611C43.4173 85.0514 37.6003 86.952 37.9613 90.1711C37.9941 90.395 38.103 90.6007 38.2698 90.7536L60.7878 112.72C73.7318 125.358 102.263 127.174 126.155 127.502C126.391 127.502 126.623 127.431 126.819 127.3C127.016 127.168 127.168 126.981 127.258 126.762C127.347 126.543 127.37 126.302 127.322 126.07C127.274 125.839 127.159 125.626 126.99 125.46Z" fill="#4167E5"/>
<path d="M60.792 112.72C53.716 105.817 50.437 92.161 63.9978 64.001C41.9518 73.8535 34.2268 86.804 38.0258 90.512L60.792 112.72Z" fill="#4973FF"/>
<path d="M125.45 1.01131L64.643 63.3433C64.4549 63.5285 64.3382 63.7742 64.3133 64.037C64.2885 64.2998 64.3571 64.5629 64.5071 64.7801C68.2069 69.9426 75.0261 70.8379 77.5571 74.3069C85.0474 84.5819 86.9501 90.3989 90.1671 90.0379C90.3918 90.0059 90.5985 89.8969 90.7517 89.7294L112.718 67.2114C125.356 54.2674 127.172 25.7364 127.5 1.84441C127.5 1.6067 127.43 1.37426 127.297 1.17693C127.165 0.9796 126.976 0.826365 126.756 0.736883C126.536 0.647401 126.294 0.625752 126.061 0.674714C125.828 0.723676 125.615 0.840645 125.45 1.01131Z" fill="#00C7D4"/>
<path d="M112.73 67.211C105.826 74.287 92.171 77.566 64.009 64.0052C73.8615 86.0512 86.812 93.7762 90.52 89.9772L112.73 67.211Z" fill="#11E1EE"/>
<path d="M1.00169 2.54951L63.3337 63.3565C63.5191 63.5442 63.7647 63.6607 64.0274 63.6855C64.2901 63.7104 64.5531 63.642 64.7705 63.4924C69.933 59.7926 70.8283 52.9714 74.2973 50.4424C84.5723 42.9521 90.3893 41.0515 90.0283 37.8324C89.9955 37.608 89.8866 37.4016 89.7198 37.2478L67.2018 15.2818C54.2578 2.64378 25.7268 0.827781 1.83479 0.499781C1.59658 0.498231 1.36339 0.568159 1.16534 0.700528C0.967293 0.832896 0.813497 1.02162 0.723829 1.24231C0.634161 1.463 0.612742 1.70551 0.662342 1.9385C0.711941 2.17149 0.829909 2.38448 1.00169 2.54951Z" fill="#242D8B"/>
<path d="M67.212 15.284C74.288 22.1875 77.567 35.843 64.0062 64.005C86.0522 54.1525 93.7772 41.2 89.9782 37.494L67.212 15.284Z" fill="#4973FF"/>
<path d="M15.2784 60.7999C22.1819 53.7239 35.838 50.445 64 64.0058C54.1475 41.9598 41.197 34.2348 37.489 38.0338L15.2784 60.7999Z" fill="#0CB6FF"/>
<path d="M64.009 66.7132C65.5102 66.7132 66.7272 65.4962 66.7272 63.995C66.7272 62.4938 65.5102 61.2768 64.009 61.2768C62.5078 61.2768 61.2908 62.4938 61.2908 63.995C61.2908 65.4962 62.5078 66.7132 64.009 66.7132Z" fill="#4A4848"/>
</svg>
