<svg width="496" height="800" viewBox="0 0 496 800" fill="none" xmlns="http://www.w3.org/2000/svg">
<path d="M170.387 71.1171C161.575 62.262 149.281 56.7934 135.614 56.7934C121.999 56.7934 109.801 62.262 101.092 71.1171H100.842C92.0559 79.9289 86.5873 92.231 86.5873 105.846C86.5873 119.513 92.0559 131.712 100.842 140.472L101.092 140.67C109.801 149.482 121.999 154.899 135.614 154.899C149.281 154.899 161.575 149.482 170.387 140.67L170.516 140.472C179.345 131.712 184.762 119.513 184.762 105.846C184.762 92.231 179.345 79.9289 170.516 71.1171H170.387ZM135.614 742.574C149.281 742.574 161.575 737.01 170.387 728.302L170.516 728.043C179.345 719.352 184.762 707.05 184.762 693.53C184.762 679.863 179.345 667.612 170.516 658.757H170.387C161.575 649.798 149.281 644.382 135.614 644.382C121.999 644.382 109.801 649.798 101.092 658.757H100.842C92.0559 667.612 86.5873 679.863 86.5873 693.53C86.5873 707.05 92.0559 719.352 100.842 728.043L101.092 728.302C109.801 737.01 121.999 742.574 135.614 742.574ZM402.873 593.964C415.029 590.776 426.035 582.975 432.747 571.183L433.654 569.463C439.624 558.276 440.713 545.369 437.525 533.931C434.311 521.681 426.415 510.847 414.648 504.065L413.966 503.608C402.502 497.327 389.44 495.962 377.44 499.202C365.241 502.243 354.287 510.389 347.609 522.087C340.845 533.672 339.428 547.036 342.667 559.338C346.011 571.433 353.829 582.37 365.518 589.204H365.596C377.31 595.934 390.58 597.152 402.873 593.964ZM185.954 349.417C173.065 336.562 155.303 328.51 135.614 328.51C116.003 328.51 98.2847 336.562 85.421 349.417C72.6179 362.229 64.7218 379.948 64.7218 399.584C64.7218 419.273 72.6179 437.043 85.421 450.002C98.2847 462.753 116.003 470.753 135.614 470.753C155.303 470.753 173.065 462.753 185.954 450.002C198.783 437.043 206.679 419.273 206.679 399.584C206.679 379.948 198.783 362.229 185.954 349.417ZM157.653 265.808C186.179 270.507 211.846 284.175 231.43 303.915H231.586C234.696 307.051 237.737 310.446 240.545 313.884L289.52 285.548C282.937 265.652 282.634 244.849 287.922 225.36C294.911 199.235 311.843 175.849 337.225 161.171L338.063 160.67C363.168 146.441 391.712 143.504 417.482 150.493C443.572 157.473 467.114 174.484 481.766 199.848V199.9C496.348 225.109 499.312 254.059 492.349 280.08C485.411 306.187 468.401 329.728 443.045 344.303L436.358 348.259H435.676C412.221 359.438 386.425 361.166 362.736 354.937C343.281 349.771 325.432 338.938 311.463 323.5L262.566 351.75C268.181 366.626 271.3 382.678 271.3 399.584C271.3 416.439 268.181 432.689 262.566 447.669L311.463 475.816C325.432 460.179 343.281 449.544 362.736 444.378C388.826 437.242 417.759 440.283 443.045 455.013L444.661 455.773V455.877C469.092 470.649 485.489 493.534 492.349 519.348C499.312 545.214 496.348 574.172 481.766 599.433L480.884 601.204L480.781 601.048C466.129 625.402 443.045 641.902 417.56 648.883C391.409 655.768 362.486 652.831 337.225 638.308V638.101C311.843 623.423 294.911 599.985 287.922 573.921C282.634 554.483 282.937 533.672 289.52 513.784L240.545 485.535C237.737 488.982 234.696 492.221 231.586 495.357L231.43 495.504C211.846 515.149 186.179 528.817 157.653 533.369V589.964C177.98 594.214 196.2 604.391 210.481 618.663L210.55 618.819C229.685 637.851 241.53 664.373 241.53 693.53C241.53 722.592 229.685 748.949 210.55 768.085L210.481 768.387C191.215 787.523 164.771 799.367 135.614 799.367C106.613 799.367 80.1339 787.523 60.9206 768.387H60.8514V768.085C41.6899 748.949 29.8198 722.592 29.8198 693.53C29.8198 664.373 41.6899 637.851 60.8514 618.819V618.663H60.9206C75.1751 604.391 93.4208 594.214 113.697 589.964V533.369C85.1446 528.817 59.5556 515.149 39.9967 495.504L39.7893 495.357C15.3407 470.805 0.0581055 437.043 0.0581055 399.584C0.0581055 362.229 15.3407 328.467 39.7893 303.915H39.9967C59.5556 284.175 85.1446 270.507 113.697 265.808V209.464C93.4208 205.058 75.1751 194.889 60.9206 180.713H60.8514V180.557C41.6899 161.327 29.8198 135.003 29.8198 105.846C29.8198 76.8361 41.6899 50.2623 60.8514 31.1267L60.9206 31.0316C80.1339 11.8442 106.613 0 135.614 0C164.771 0 191.215 11.8442 210.481 31.0316V31.1267H210.55C229.685 50.2623 241.53 76.8361 241.53 105.846C241.53 135.003 229.685 161.327 210.55 180.557L210.481 180.713C196.2 194.889 177.98 205.058 157.653 209.464V265.808ZM432.747 228.245L432.341 227.64C425.577 216.245 414.795 208.652 402.873 205.36C390.58 202.12 377.31 203.494 365.518 210.224H365.596C353.829 216.902 345.959 227.839 342.667 240.089C339.428 252.236 340.845 265.652 347.609 277.341L347.834 277.652C354.615 289.185 365.397 296.926 377.44 300.062C389.543 303.457 403.029 302.04 414.648 295.258L415.279 294.956C426.717 288.123 434.337 277.341 437.525 265.497C440.764 253.298 439.477 239.934 432.747 228.245Z" fill="#4973FF"/>
</svg>
