<svg width="128" height="70" viewBox="0 0 128 70" fill="none" xmlns="http://www.w3.org/2000/svg">
<path d="M98.18 59.13C113.81 43.51 116.41 20.77 103.98 8.35C91.55 -4.07 68.81 -1.46999 53.18 14.15C37.55 29.77 42.07 59.63 47.38 64.93C51.67 69.22 82.55 74.75 98.18 59.13Z" fill="#4167E5"/>
<path d="M34.04 36.56C24.97 27.5 11.77 25.99 4.55999 33.19C-2.65001 40.4 -1.14001 53.59 7.92999 62.65C17 71.72 34.33 69.09 37.41 66.02C39.9 63.53 43.12 45.62 34.04 36.56Z" fill="#3499CD"/>
<path d="M123.82 56.68C123.24 56.68 122.95 56.33 122.95 55.62C122.95 55.09 123.3 53.93 123.99 52.16C125 49.57 125.51 47.71 125.51 46.58C125.51 45.9 125.31 45.33 124.91 44.88C124.51 44.43 124.01 44.2 123.41 44.2C122.53 44.2 121.52 44.61 120.38 45.44C119.24 46.27 117.71 47.76 115.78 49.92C116.06 48.52 116.66 46.6 117.56 44.16L113.25 44.99C112.27 47.11 111.56 49.02 111.12 50.72C110.9 51.55 110.74 52.41 110.63 53.28C109.28 54.59 108.4 55.38 108.02 55.67C107.63 55.96 107.22 56.1 106.8 56.1C106.41 56.1 106.1 55.95 105.87 55.66C105.64 55.37 105.53 54.97 105.53 54.48C105.53 53.95 105.63 53.34 105.83 52.65C106.03 51.96 106.47 50.66 107.16 48.75L108.8 44.23L107.19 44.3C105.73 47.08 104.02 48.58 102.06 48.79C102.59 47.41 102.86 46.35 102.86 45.61C102.86 44.67 102.4 44.2 101.48 44.2C100.39 44.2 99.54 44.71 98.93 45.74C98.31 46.77 98 47.74 98 48.65C98 49.56 98.51 50.2 99.52 50.65C98.86 51.62 98.12 52.53 97.32 53.39C96.37 54.33 95.63 55.05 95.09 55.52C94.54 56.01 94.03 56.25 93.57 56.25C92.85 56.25 92.49 55.74 92.49 54.73C92.49 53.72 92.89 51.98 93.69 49.38L95.25 44.2H94.26L90.65 46.2C90.06 44.85 89.03 44.17 87.56 44.17C86.39 44.17 85.05 44.67 83.53 45.66C82.01 46.65 80.76 47.94 79.79 49.55C79.04 50.79 78.58 52.09 78.41 53.43C77.05 54.79 76.03 55.67 75.35 56.08C74.64 56.5 73.9 56.71 73.12 56.71C71.13 56.71 69.9 55.56 69.43 53.26C74.62 51.74 77.21 49.76 77.21 47.32C77.21 46.4 76.88 45.66 76.22 45.09C75.56 44.52 74.68 44.24 73.59 44.24C71.48 44.24 69.56 45.25 67.83 47.27C66.26 49.1 65.41 51.13 65.26 53.36C63.83 54.77 62.75 55.7 62.05 56.15C61.33 56.61 60.65 56.84 60.02 56.84C59.39 56.84 58.89 56.54 58.52 55.94C58.14 55.34 57.95 54.53 57.95 53.5C57.95 53.04 58 52.2 58.09 50.97C60.45 48.41 62.18 46.01 63.29 43.76C64.4 41.51 64.95 39.18 64.95 36.78C64.95 35.93 64.84 35.26 64.62 34.76C64.4 34.26 64.12 34.01 63.78 34.01C63.71 34.01 63.6 34.03 63.46 34.08L58.97 35.74C57.44 38.66 56.13 41.85 55.06 45.32C53.99 48.78 53.45 51.75 53.45 54.22C53.45 55.87 53.83 57.18 54.61 58.16C55.38 59.14 56.4 59.63 57.66 59.63C58.76 59.63 59.91 59.28 61.12 58.58C62.33 57.88 63.73 56.79 65.34 55.32C66.95 53.85 65.34 55.3 65.34 55.3C65.53 56.41 65.99 57.34 66.71 58.1C67.7 59.12 68.99 59.64 70.59 59.64C72.03 59.64 73.34 59.29 74.53 58.59C75.68 57.92 76.97 56.87 78.41 55.48C78.53 56.52 78.87 57.42 79.44 58.19C80.17 59.16 81.05 59.65 82.08 59.65C83.11 59.65 84.17 59.25 85.17 58.45C86.17 57.65 87.25 56.4 88.43 54.72C88.32 58.01 89.2 59.65 91.06 59.65C91.8 59.65 92.58 59.38 93.39 58.84C94.2 58.3 95.55 57.13 97.44 55.34C99.08 53.72 100.28 52.2 101.05 50.78C102.09 50.6 103.04 50.29 103.91 49.84C102.13 52.63 101.24 54.86 101.24 56.52C101.24 57.42 101.49 58.17 101.98 58.77C102.47 59.37 103.08 59.68 103.8 59.68C105.37 59.68 107.6 58.27 110.48 55.48C110.48 55.7 110.46 55.91 110.46 56.13C110.46 56.91 110.53 58.09 110.65 59.68L114.56 58.76C114.56 57.7 114.58 56.86 114.61 56.23C114.67 55.39 114.79 54.47 114.96 53.47C115.07 52.88 115.34 52.32 115.77 51.79L116.76 50.64C117.12 50.22 117.47 49.84 117.78 49.51C118.15 49.12 118.48 48.79 118.77 48.52C119.1 48.23 119.39 47.99 119.64 47.83C119.91 47.67 120.13 47.58 120.29 47.58C120.58 47.58 120.73 47.77 120.73 48.15C120.73 48.53 120.45 49.41 119.9 50.8C118.86 53.39 118.34 55.32 118.34 56.58C118.34 57.51 118.58 58.25 119.07 58.81C119.55 59.36 120.19 59.64 120.98 59.64C122.92 59.64 125.26 58.2 127.98 55.33V53.3C126.05 55.57 124.66 56.71 123.8 56.71L123.82 56.68ZM58.56 48.39C59.36 44.48 60.18 41.45 61.01 39.28C61.84 37.11 62.48 36.02 62.91 36.02C63.11 36.02 63.28 36.15 63.41 36.42C63.54 36.68 63.6 37.04 63.6 37.47C63.6 38.96 63.14 40.73 62.2 42.8C61.27 44.86 60.05 46.73 58.56 48.39ZM70.35 47.41C71.06 46.22 71.8 45.63 72.58 45.63C73.4 45.63 73.82 46.2 73.82 47.33C73.82 49.62 72.31 51.18 69.29 52.03C69.29 50.13 69.64 48.59 70.35 47.41ZM87.83 53.26C86.79 55.27 85.67 56.27 84.5 56.27C84.02 56.27 83.62 56.07 83.31 55.68C83 55.29 82.84 54.77 82.84 54.13C82.84 52.45 83.37 50.6 84.42 48.6C85.47 46.6 86.59 45.6 87.77 45.6C88.26 45.6 88.66 45.78 88.95 46.16C89.24 46.53 89.39 47.05 89.39 47.71C89.39 49.41 88.87 51.26 87.83 53.27V53.26Z" fill="#010101"/>
<path d="M75.46 35.88C75.61 36.09 75.68 36.36 75.68 36.68C75.68 37 75.59 37.29 75.41 37.56C75.23 37.83 74.97 38.05 74.62 38.2C74.28 38.35 73.89 38.43 73.46 38.43C72.74 38.43 72.2 38.28 71.82 37.98C71.44 37.68 71.2 37.24 71.1 36.65L72.03 36.5C72.08 36.87 72.23 37.16 72.46 37.35C72.7 37.55 73.03 37.65 73.46 37.65C73.89 37.65 74.21 37.56 74.42 37.39C74.63 37.22 74.73 37.01 74.73 36.77C74.73 36.56 74.64 36.39 74.45 36.27C74.32 36.19 74 36.08 73.49 35.95C72.8 35.78 72.33 35.63 72.06 35.5C71.79 35.37 71.59 35.2 71.46 34.97C71.33 34.74 71.25 34.5 71.25 34.23C71.25 33.98 71.31 33.76 71.42 33.55C71.53 33.34 71.69 33.17 71.88 33.03C72.03 32.92 72.22 32.83 72.47 32.76C72.72 32.69 72.99 32.65 73.28 32.65C73.71 32.65 74.09 32.71 74.42 32.84C74.75 32.96 74.99 33.13 75.15 33.35C75.31 33.56 75.41 33.85 75.47 34.21L74.55 34.33C74.51 34.05 74.39 33.82 74.19 33.66C73.99 33.5 73.71 33.42 73.34 33.42C72.91 33.42 72.6 33.49 72.42 33.63C72.24 33.77 72.14 33.94 72.14 34.13C72.14 34.25 72.18 34.36 72.25 34.46C72.33 34.56 72.45 34.64 72.61 34.71C72.7 34.74 72.98 34.82 73.44 34.95C74.1 35.13 74.56 35.27 74.83 35.38C75.09 35.49 75.3 35.66 75.45 35.87L75.46 35.88ZM79.93 37.32C79.68 37.55 79.38 37.66 79.01 37.66C78.55 37.66 78.18 37.49 77.9 37.16C77.62 36.83 77.47 36.28 77.47 35.54C77.47 34.8 77.62 34.27 77.91 33.94C78.2 33.61 78.59 33.43 79.06 33.43C79.37 33.43 79.64 33.52 79.86 33.71C80.08 33.9 80.23 34.18 80.32 34.55L81.23 34.41C81.12 33.85 80.88 33.42 80.5 33.12C80.12 32.82 79.63 32.67 79.03 32.67C78.55 32.67 78.12 32.78 77.71 33.01C77.31 33.23 77 33.57 76.81 34.02C76.61 34.47 76.51 34.99 76.51 35.59C76.51 36.51 76.74 37.22 77.2 37.71C77.66 38.2 78.27 38.45 79.02 38.45C79.62 38.45 80.13 38.27 80.55 37.91C80.96 37.55 81.22 37.05 81.32 36.42L80.4 36.3C80.33 36.77 80.18 37.11 79.93 37.34V37.32ZM82.12 38.3H83.06V32.78H82.12V38.3ZM82.12 31.75H83.06V30.67H82.12V31.75ZM88.85 32.77H87.64L85.42 35.02V30.67H84.48V38.29H85.42V36.1L86.08 35.47L87.91 38.29H89.07L86.74 34.82L88.85 32.77ZM89.81 31.75H90.75V30.67H89.81V31.75ZM89.81 38.3H90.75V32.78H89.81V38.3ZM94.22 37.46C94.05 37.48 93.91 37.5 93.81 37.5C93.67 37.5 93.56 37.48 93.49 37.43C93.42 37.38 93.36 37.32 93.33 37.25C93.3 37.17 93.28 37 93.28 36.74V33.51H94.22V32.78H93.28V30.85L92.35 31.41V32.78H91.66V33.51H92.35V36.69C92.35 37.25 92.39 37.62 92.46 37.79C92.54 37.97 92.67 38.11 92.85 38.21C93.04 38.32 93.3 38.37 93.64 38.37C93.85 38.37 94.08 38.34 94.35 38.29L94.21 37.46H94.22Z" fill="white"/>
</svg>
