<svg width="800" height="800" viewBox="0 0 800 800" fill="none" xmlns="http://www.w3.org/2000/svg">
<g clip-path="url(#clip0_1_15)">
<path d="M340.133 478.333L340.367 478.667L307.067 559.1C275.112 538.644 250.8 508.215 237.9 472.533L323.833 457.967L323.967 458.133C326.576 457.654 329.266 457.891 331.751 458.819C334.236 459.748 336.423 461.333 338.078 463.405C339.734 465.478 340.796 467.961 341.152 470.59C341.508 473.219 341.145 475.895 340.1 478.333H340.133ZM312.367 407.367C314.925 406.666 317.246 405.285 319.081 403.37C320.917 401.455 322.199 399.078 322.791 396.492C323.383 393.906 323.262 391.209 322.442 388.686C321.622 386.163 320.133 383.91 318.133 382.167L318.2 381.8L252.833 323.333C232.893 355.792 224.331 393.968 228.5 431.833L312.3 407.667L312.367 407.367ZM350.533 341.367C352.678 342.932 355.208 343.886 357.852 344.126C360.497 344.366 363.157 343.884 365.549 342.731C367.941 341.578 369.975 339.797 371.434 337.578C372.893 335.36 373.722 332.786 373.833 330.133L374.167 329.967L379.167 242.633C341.309 247.059 306.006 263.972 278.833 290.7L350.4 341.467L350.533 341.367ZM375.867 433.033L399.967 444.667L424.033 433.1L430.033 407.1L413.367 386.333H386.567L369.9 407.1L375.867 433.033ZM425.867 329.867C425.979 332.522 426.812 335.098 428.275 337.317C429.738 339.536 431.777 341.316 434.173 342.467C436.57 343.617 439.234 344.094 441.881 343.848C444.527 343.601 447.057 342.64 449.2 341.067L449.467 341.167L520.6 290.733C493.521 264.215 458.48 247.327 420.867 242.667L425.8 329.833L425.867 329.867ZM788.4 528.867L595.967 768.233C590.954 774.433 584.614 779.43 577.415 782.857C570.216 786.284 562.34 788.052 554.367 788.033L245.667 788.133C237.694 788.139 229.821 786.358 222.628 782.92C215.434 779.482 209.103 774.474 204.1 768.267L11.5667 528.933C6.61277 522.736 3.12002 515.502 1.34828 507.769C-0.423456 500.036 -0.428561 492.002 1.33334 484.267L70 185.767C73.6 170.1 84.1667 156.967 98.7667 150L376.833 17.1C384.041 13.6555 391.928 11.8676 399.917 11.8676C407.905 11.8676 415.792 13.6555 423 17.1L701.167 149.933C715.767 156.9 726.333 170.067 729.933 185.7L798.667 484.2C802.267 499.867 798.5 516.3 788.4 528.867ZM678.767 460.3C677.367 459.967 675.333 459.433 673.933 459.167C668.133 458.067 663.433 458.333 657.967 457.9C646.3 456.667 636.7 455.667 628.133 452.967C624.633 451.633 622.133 447.467 620.933 445.767L614.233 443.8C617.804 417.892 616.618 391.549 610.733 366.067C604.839 340.325 594.263 315.885 579.533 293.967C581.267 292.4 584.533 289.533 585.433 288.667C585.7 285.667 585.467 282.567 588.567 279.267C595.133 273.1 603.367 268 613.333 261.867C618.067 259.067 622.433 257.3 627.167 253.8C628.233 253 629.7 251.733 630.833 250.833C638.833 244.467 640.667 233.5 634.933 226.3C629.2 219.1 618.067 218.433 610.1 224.8C608.967 225.7 607.433 226.867 606.4 227.733C601.933 231.6 599.167 235.4 595.4 239.4C587.2 247.733 580.4 254.667 572.967 259.7C569.733 261.567 565 260.933 562.867 260.8L556.533 265.3C520.074 227.04 470.966 203.315 418.333 198.533L417.933 191.1C415.767 189.033 413.167 187.267 412.5 182.767C411.767 173.833 413 164.2 414.4 152.6C415.167 147.167 416.433 142.667 416.667 136.767C416.7 135.433 416.633 133.467 416.633 132.033C416.633 121.833 409.167 113.533 399.967 113.533C390.8 113.533 383.333 121.833 383.333 132.033L383.367 132.5C383.367 133.867 383.3 135.567 383.367 136.767C383.567 142.667 384.833 147.167 385.6 152.6C387 164.2 388.2 173.833 387.467 182.8C386.521 186.122 384.648 189.105 382.067 191.4L381.667 198.433C328.697 202.687 279.201 226.485 242.8 265.2C240.781 263.804 238.781 262.382 236.8 260.933C233.8 261.333 230.8 262.267 226.9 259.967C219.467 254.967 212.667 248.033 204.467 239.7C200.7 235.7 197.967 231.9 193.5 228.067C192.5 227.2 190.933 226 189.8 225.133C186.505 222.462 182.438 220.919 178.2 220.733C175.683 220.6 173.17 221.061 170.865 222.081C168.56 223.1 166.528 224.648 164.933 226.6C159.2 233.8 161.033 244.8 169.033 251.167L169.267 251.333L172.733 254.1C177.467 257.6 181.8 259.4 186.533 262.167C196.5 268.333 204.733 273.433 211.3 279.567C213.833 282.3 214.3 287.1 214.633 289.167L219.967 293.933C190.511 338.1 178.404 391.588 185.967 444.133L179.033 446.133C177.2 448.533 174.6 452.267 171.867 453.367C163.3 456.067 153.667 457.033 142.033 458.267C136.567 458.733 131.867 458.467 126.033 459.567C124.8 459.8 123.033 460.233 121.6 460.567L121.467 460.633L121.233 460.7C111.4 463.067 105.1 472.1 107.133 480.967C109.167 489.867 118.767 495.267 128.633 493.133L128.867 493.1L129.2 493L133.5 492.033C139.167 490.5 143.3 488.267 148.433 486.3C159.433 482.367 168.567 479.067 177.433 477.767C181.167 477.467 185.1 480.067 187.033 481.133L194.267 479.9C210.558 530.236 244.705 572.872 290.267 599.767L287.267 607.033C288.367 609.833 289.567 613.667 288.733 616.433C285.5 624.833 279.967 633.667 273.667 643.533C270.633 648.067 267.5 651.6 264.733 656.833C264.067 658.067 263.233 660 262.6 661.3C258.333 670.467 261.467 681 269.7 684.967C277.967 688.967 288.233 684.733 292.7 675.567V675.5C293.367 674.2 294.233 672.5 294.767 671.267C297.1 665.867 297.9 661.233 299.567 656C303.967 644.933 306.4 633.333 312.467 626.1C314.133 624.1 316.8 623.367 319.633 622.6L323.4 615.767C372.816 634.808 427.519 634.95 477.033 616.167L480.567 622.567C483.433 623.5 486.567 623.967 489.1 627.733C493.633 635.467 496.733 644.633 500.5 655.733C502.167 660.933 502.967 665.567 505.333 670.967C505.867 672.2 506.767 673.967 507.4 675.267C511.833 684.467 522.133 688.667 530.4 684.667C538.633 680.733 541.767 670.167 537.5 661C536.833 659.7 536 657.8 535.333 656.533C532.567 651.333 529.433 647.833 526.4 643.267C520.067 633.4 514.867 625.233 511.633 616.833C510.3 612.5 511.867 609.833 512.9 607.033C512.3 606.3 510.933 602.233 510.133 600.3C555.862 573.197 590.03 530.226 606.133 479.567C608.267 479.9 612 480.567 613.233 480.833C615.733 479.167 618.033 477.033 622.567 477.367C631.433 478.667 640.567 481.967 651.567 485.9C656.7 487.9 660.8 490.167 666.5 491.667C667.7 492 669.433 492.3 670.833 492.6L671.133 492.7L671.367 492.733C681.267 494.867 690.833 489.467 692.867 480.567C694.867 471.7 688.6 462.667 678.767 460.3ZM546.667 323.367L481.667 381.567V381.733C479.658 383.475 478.161 385.73 477.336 388.258C476.51 390.785 476.387 393.489 476.979 396.08C477.571 398.672 478.857 401.054 480.698 402.971C482.54 404.889 484.868 406.27 487.433 406.967L487.533 407.3L571.733 431.567C573.562 412.894 572.346 394.049 568.133 375.767C563.897 357.231 556.645 339.518 546.667 323.333V323.367ZM412.9 500.867C411.613 498.439 409.666 496.424 407.283 495.056C404.9 493.687 402.179 493.021 399.433 493.133C396.867 493.229 394.372 493.997 392.196 495.36C390.02 496.723 388.24 498.633 387.033 500.9H386.967L344.7 577.3C380.633 589.559 419.611 589.594 455.567 577.4L413.233 500.867H412.9ZM475.833 457.767C472.782 457.205 469.631 457.625 466.833 458.967C463.408 460.604 460.75 463.505 459.42 467.061C458.09 470.617 458.19 474.55 459.7 478.033L459.6 478.167L493.267 559.433C525.436 538.897 549.844 508.225 562.633 472.267L475.967 457.6L475.833 457.767Z" fill="#4973FF"/>
</g>
<defs>
<clipPath id="clip0_1_15">
<rect width="800" height="800" fill="white"/>
</clipPath>
</defs>
</svg>
