<svg width="128" height="70" viewBox="0 0 128 70" fill="none" xmlns="http://www.w3.org/2000/svg">
<path d="M63.9926 43.5213L41.5537 31.6603L2.60342 11.0741C2.56786 11.0385 2.49676 11.0385 2.4612 11.0385C1.03901 10.363 -0.418737 11.7851 0.114587 13.2074L19.9613 63.8267L19.9648 63.8377C19.9861 63.8876 20.0039 63.9371 20.0252 63.987C20.8394 65.8749 22.6172 67.041 24.5514 67.4996C24.7149 67.5355 24.8319 67.5675 25.0283 67.6067C25.2238 67.6502 25.4971 67.7095 25.7318 67.7275C25.7709 67.7308 25.8064 67.7308 25.8456 67.734H25.874C25.9024 67.7384 25.9309 67.7384 25.9594 67.7416H25.9984C26.0233 67.7449 26.0518 67.7449 26.0767 67.7449H26.1229C26.1513 67.7493 26.1798 67.7493 26.2082 67.7493C51.3434 70.4897 76.7018 70.4897 101.837 67.7493C102.139 67.7493 102.434 67.7348 102.718 67.7066C102.811 67.6957 102.9 67.6853 102.989 67.6747C103 67.6703 103.014 67.6703 103.024 67.6671C103.085 67.6595 103.145 67.6492 103.206 67.6385C103.294 67.6276 103.384 67.6104 103.472 67.5924C103.65 67.5531 103.731 67.525 103.972 67.4418C104.213 67.359 104.614 67.2139 104.865 67.0932C105.115 66.9725 105.289 66.8564 105.499 66.725C105.758 66.5612 106.005 66.3939 106.256 66.2062C106.364 66.1234 106.438 66.0705 106.516 65.9958L106.473 65.9711L63.9926 43.5213Z" fill="#4973FF"/>
<path d="M125.446 11.0746H125.411L86.4458 31.6608L108.106 63.9198L127.903 13.2078V13.1368C128.401 11.6434 126.872 10.2924 125.446 11.0746Z" fill="#242D8B"/>
<path d="M66.0691 1.28605C65.0733 -0.168144 62.9046 -0.168144 61.9446 1.28605L41.5537 31.6603L63.9926 43.5213L106.516 65.9958C106.783 65.7343 106.997 65.4792 107.224 65.21C107.544 64.8153 107.843 64.3929 108.106 63.9198L86.4458 31.6608L66.0691 1.28605Z" fill="#4167E5"/>
</svg>
